# xmcd
#
# Track frame offsets:
#	150
#	29227
#	55397
#	86135
#	108627
#	133552
#	155547
#	177122
#	201590
#	225725
#
# Disc length: 3321 seconds
#
# Revision: 1
# Processed by: cddbd v1.5.2PL0 Copyright (c) Steve Scherf et al.
# Submitted via: EZCDAudioConverter 8.0.2.1
#
DISCID=920cf70a
DTITLE=Various Artist - Tình Ca Chọn Lọc 75-95
DYEAR=1995
DGENRE=World Pop
TTITLE0=Hợp Ca Asia  - Bước chân Việt Nam
TTITLE1=Như Quỳnh - Chuyện giàn thiên lý
TTITLE2=Ý Lan - Hạnh phúc lang thang
TTITLE3=Việt Dzũng - Ngày đó
TTITLE4=Julie - Tháng sáu trời mưa
TTITLE5=Duy Quang - Kiếp đam mê
TTITLE6=Kim Anh - Mùa thu lá bay
TTITLE7=Elvis Phương - LK Mười năm yêu em, Mười năm tình cũ
TTITLE8=Sơn Tuyền - Người yêu cô đơn
TTITLE9=Khánh Ly - Sài Gòn niềm nhớ không tên
EXTD=
EXTT0=
EXTT1=
EXTT2=
EXTT3=
EXTT4=
EXTT5=
EXTT6=
EXTT7=
EXTT8=
EXTT9=
PLAYORDER=
